<svg xmlns="http://www.w3.org/2000/svg" width="85" height="70" viewBox="0 0 85 70" fill="none">
  <g clip-path="url(#clip0_13_200)">
    <path fill-rule="evenodd" clip-rule="evenodd" d="M42.3239 23.0117L51.6239 27.9343C51.6239 27.9343 52.2189 28.1803 53.3369 28.1803C54.1505 28.1803 54.0713 29.1649 54.0713 29.1649C54.0713 29.1649 53.5302 29.2165 53.0922 29.6572C52.358 30.3953 51.3789 29.1649 51.3789 29.1649L44.7713 26.4577C42.9603 26.2486 41.5832 25.63 42.3239 23.0117Z" fill="#EF998B"/>
    <path fill-rule="evenodd" clip-rule="evenodd" d="M52.8468 29.6564L54.3393 30.2825L54.8048 29.6564L53.3844 28.9422C53.3508 28.9254 53.3163 28.9139 53.279 28.9085C53.0462 28.8743 52.3575 28.9179 52.8468 29.6564Z" fill="#565A5B"/>
    <path fill-rule="evenodd" clip-rule="evenodd" d="M37.379 12.1836L36.2045 14.891L39.3569 16.2392L40.6095 13.1681L37.379 12.1836Z" fill="#FEC5B5"/>
    <path fill-rule="evenodd" clip-rule="evenodd" d="M48.197 54.0226C48.197 54.0226 47.0792 55.4992 47.8828 57.2222H51.3787C51.6115 57.4364 54.1979 55.8628 55.0117 54.0947C55.2943 52.546 52.6024 54.761 52.6024 54.761L50.3996 53.7766L48.197 54.0226Z" fill="#929B9B"/>
    <mask id="mask0_13_200" style="mask-type:alpha" maskUnits="userSpaceOnUse" x="-1" y="3" width="95" height="67">
      <path fill-rule="evenodd" clip-rule="evenodd" d="M-0.00646973 69.1134H93.0396V3.8457H-0.00646973V69.1134Z" fill="white"/>
    </mask>
    <g mask="url(#mask0_13_200)">
      <path fill-rule="evenodd" clip-rule="evenodd" d="M9.28357 32.856H20.0519V29.1641H9.28357V32.856Z" fill="#DBB08D"/>
      <path fill-rule="evenodd" clip-rule="evenodd" d="M8.0238 32.856H19.7982V29.1641H8.0238V32.856Z" fill="#C19571"/>
      <path fill-rule="evenodd" clip-rule="evenodd" d="M11.976 43.4434L15.8285 46.1783C15.9974 46.2982 16.2311 46.2542 16.3457 46.0813L16.4258 45.9602C16.5369 45.7927 16.4939 45.5666 16.3293 45.4519L13.5388 43.5089C13.4773 43.4662 13.4044 43.4434 13.3297 43.4434H11.976Z" fill="#565A5B"/>
      <path fill-rule="evenodd" clip-rule="evenodd" d="M11.3995 49.5957H12.9557L10.7533 53.7797H9.04776C8.8163 53.7797 8.67731 53.5209 8.80452 53.3267L11.1565 49.7277C11.2102 49.6451 11.3015 49.5957 11.3995 49.5957Z" fill="#F76B6D"/>
      <path fill-rule="evenodd" clip-rule="evenodd" d="M31.0244 60.3367C31.0244 65.1847 27.1164 69.115 22.2956 69.115C17.4747 69.115 13.5668 65.1847 13.5668 60.3367C13.5668 55.4884 17.4747 51.5586 22.2956 51.5586C27.1164 51.5586 31.0244 55.4884 31.0244 60.3367Z" fill="#565A5B"/>
      <path fill-rule="evenodd" clip-rule="evenodd" d="M75.8325 60.3367C75.8325 65.1847 71.9246 69.115 67.1037 69.115C62.2829 69.115 58.3749 65.1847 58.3749 60.3367C58.3749 55.4884 62.2829 51.5586 67.1037 51.5586C71.9246 51.5586 75.8325 55.4884 75.8325 60.3367Z" fill="#565A5B"/>
      <path fill-rule="evenodd" clip-rule="evenodd" d="M28.4988 60.3342C28.4988 63.7796 25.7216 66.5727 22.2956 66.5727C18.8694 66.5727 16.0922 63.7796 16.0922 60.3342C16.0922 56.8886 18.8694 54.0957 22.2956 54.0957C25.7216 54.0957 28.4988 56.8886 28.4988 60.3342Z" fill="#929B9B"/>
      <path fill-rule="evenodd" clip-rule="evenodd" d="M73.307 60.3342C73.307 63.7796 70.5297 66.5727 67.1036 66.5727C63.6776 66.5727 60.9003 63.7796 60.9003 60.3342C60.9003 56.8886 63.6776 54.0957 67.1036 54.0957C70.5297 54.0957 73.307 56.8886 73.307 60.3342Z" fill="#929B9B"/>
      <path fill-rule="evenodd" clip-rule="evenodd" d="M60.4337 30.8868C60.4337 32.2463 59.3381 33.348 57.9863 33.348C56.6345 33.348 55.5389 32.2463 55.5389 30.8868C55.5389 29.5275 56.6345 28.4258 57.9863 28.4258C59.3381 28.4258 60.4337 29.5275 60.4337 30.8868Z" fill="#BDECFF"/>
      <path fill-rule="evenodd" clip-rule="evenodd" d="M42.0182 43.4436H23.7828C22.9388 43.4436 22.2548 42.7554 22.2548 41.9067V41.781C22.2548 40.9323 22.9388 40.2441 23.7828 40.2441H42.0182C42.8622 40.2441 43.5465 40.9323 43.5465 41.781V41.9067C43.5465 42.7554 42.8622 43.4436 42.0182 43.4436Z" fill="#FFC501"/>
      <path fill-rule="evenodd" clip-rule="evenodd" d="M18.3389 43.4395H41.3534C41.3534 43.4395 32.7782 47.1315 38.1623 55.4995C38.1623 55.4995 39.6309 57.2226 42.0783 57.2226H51.623C51.623 57.2226 56.7623 55.2535 57.0071 46.8852C57.0071 46.8852 57.986 45.9006 53.0913 33.5944L54.0704 29.6565L54.8046 29.164V27.9336H58.4756C58.4756 27.9336 58.7204 33.5944 58.4756 33.5944H56.028C56.028 33.5944 65.328 46.147 64.1043 49.1005C62.8806 52.054 56.273 59.6836 56.273 59.6836H30.5756C30.5756 59.6836 25.1912 53.7766 25.1912 54.2691C25.1912 54.7611 14.6678 58.207 14.6678 58.207L10.9968 57.7147L10.5072 56.4841L9.5282 54.5151C9.5282 54.5151 14.4232 45.9006 18.3389 43.4395Z" fill="#31CEA3"/>
      <path fill-rule="evenodd" clip-rule="evenodd" d="M6.29968 42.9466H21.5202V31.8711H6.29968V42.9466Z" fill="#DBB08D"/>
      <path fill-rule="evenodd" clip-rule="evenodd" d="M21.1535 43.6896H5.73506C5.53231 43.6896 5.36804 43.5243 5.36804 43.3205C5.36804 43.1166 5.53231 42.9512 5.73506 42.9512H21.1535C21.3561 42.9512 21.5204 43.1166 21.5204 43.3205C21.5204 43.5243 21.3561 43.6896 21.1535 43.6896Z" fill="#565A5B"/>
      <path fill-rule="evenodd" clip-rule="evenodd" d="M50.7302 32.4015L54.083 30.2832C54.083 30.2832 55.5387 30.6416 54.8046 31.8722L51.5862 33.8142C51.2433 34.0211 50.7971 33.9633 50.5308 33.6629C50.5242 33.6554 50.5179 33.6482 50.5116 33.6407C50.1882 33.2583 50.3076 32.6684 50.7302 32.4015Z" fill="#565A5B"/>
      <path fill-rule="evenodd" clip-rule="evenodd" d="M54.0707 22.3966C54.0707 23.6881 53.5777 24.7347 52.9694 24.7347C52.3612 24.7347 51.8681 23.6881 51.8681 22.3966C51.8681 21.1051 52.3612 20.0586 52.9694 20.0586C53.5777 20.0586 54.0707 21.1051 54.0707 22.3966Z" fill="#BDECFF"/>
      <path fill-rule="evenodd" clip-rule="evenodd" d="M11.2421 56.7326H8.71524C8.21841 56.7326 7.8158 56.3278 7.8158 55.8284V55.4218C7.8158 54.9224 8.21841 54.5176 8.71524 54.5176H11.2421V56.7326Z" fill="#565A5B"/>
      <path fill-rule="evenodd" clip-rule="evenodd" d="M24.3023 60.3332C24.3023 61.4478 23.4033 62.3517 22.2948 62.3517C21.186 62.3517 20.2875 61.4478 20.2875 60.3332C20.2875 59.2181 21.186 58.3145 22.2948 58.3145C23.4033 58.3145 24.3023 59.2181 24.3023 60.3332Z" fill="#565A5B"/>
      <path fill-rule="evenodd" clip-rule="evenodd" d="M74.2939 53.2028C74.8268 53.2579 75.1925 52.6567 74.8817 52.2178C72.9082 49.4317 69.6109 47.6602 65.9128 47.8318C60.5521 48.0808 56.2076 52.4969 56.0132 57.8902C55.9787 58.8542 56.0738 59.7905 56.2823 60.6826C56.4397 61.3555 57.2104 61.6907 57.8089 61.3505C63.2749 58.2437 63.7133 52.1045 74.2939 53.2028Z" fill="#FFC501"/>
      <path fill-rule="evenodd" clip-rule="evenodd" d="M69.1118 60.3332C69.1118 61.4478 68.213 62.3517 67.1045 62.3517C65.9957 62.3517 65.097 61.4478 65.097 60.3332C65.097 59.2181 65.9957 58.3145 67.1045 58.3145C68.213 58.3145 69.1118 59.2181 69.1118 60.3332Z" fill="#565A5B"/>
      <path fill-rule="evenodd" clip-rule="evenodd" d="M54.022 22.7378C54.526 22.5646 55.0519 22.8461 55.3451 23.2652C55.6589 23.7137 55.7603 24.2728 55.8661 24.7996C55.9858 25.396 56.1208 25.9888 56.2753 26.5768C56.3554 26.882 56.4407 27.1859 56.5306 27.4885C56.579 27.6511 56.6239 28.0705 56.7982 28.1513C56.8706 28.1848 56.941 28.1785 57.0013 28.1251C57.0085 28.1186 57.0155 28.1123 57.0224 28.106C57.0656 28.0681 57.0826 27.9962 57.0658 27.9422C57.0632 27.935 57.0613 27.9278 57.059 27.9206C56.9944 27.7147 56.671 27.8027 56.7362 28.0102L56.7428 28.0318C56.7571 27.9772 56.7715 27.9226 56.7859 27.868C56.7787 27.8744 56.7715 27.8807 56.7643 27.887C56.8321 27.8782 56.8999 27.8695 56.9674 27.8605C57.0136 27.8819 56.9498 27.7162 56.9449 27.701C56.9191 27.6173 56.8939 27.5333 56.8685 27.4493C56.8183 27.2815 56.7695 27.1132 56.7221 26.9441C56.6276 26.6066 56.5391 26.2672 56.4565 25.9264C56.3033 25.2934 56.2057 24.6445 56.0341 24.0166C55.7857 23.1089 55.0088 22.0433 53.933 22.4132C53.7302 22.4828 53.8172 22.8083 54.022 22.7378Z" fill="#232828"/>
      <path fill-rule="evenodd" clip-rule="evenodd" d="M13.3554 37.6944C13.2179 37.5623 13.0189 37.5639 12.883 37.6925C12.6016 37.9572 12.3262 38.2284 12.0511 38.4977C11.9704 38.5776 11.9385 38.6784 11.9641 38.7899C12.0212 39.0654 12.3495 39.1662 12.5634 38.9727C12.7348 38.8151 12.898 38.6532 13.0631 38.4893C13.1142 38.4387 13.1458 38.4284 13.203 38.4849C13.4551 38.7374 13.7136 38.9853 13.9737 39.2291C14.0312 39.284 14.0249 39.3155 13.9674 39.366C13.8003 39.5237 13.6329 39.6857 13.4677 39.8474C13.3598 39.9546 13.3385 40.0871 13.3957 40.2237C13.4528 40.3626 13.5694 40.4276 13.6903 40.434C13.8129 40.4363 13.8976 40.4088 13.9611 40.3436C14.2408 40.0767 14.5203 39.8117 14.7934 39.5384C14.9249 39.4059 14.9249 39.2147 14.7913 39.0842C14.3149 38.6154 13.8385 38.1548 13.3554 37.6944Z" fill="white"/>
      <path fill-rule="evenodd" clip-rule="evenodd" d="M15.7517 38.1192C15.6606 38.0309 15.5716 37.9364 15.4742 37.8521C15.4084 37.7955 15.3938 37.7553 15.4509 37.6736C15.652 37.3811 15.7452 37.049 15.7496 36.6938C15.7496 36.5424 15.7283 36.3951 15.6965 36.2502C15.3387 34.8689 13.5828 34.3661 12.5263 35.346C12.2001 35.6486 11.8845 35.9619 11.5645 36.2712C11.2662 36.5612 10.9652 36.8495 10.6688 37.1394C10.5649 37.2405 10.5313 37.3623 10.5798 37.5009C10.6286 37.6398 10.7346 37.7112 10.8785 37.7303C11.0034 37.745 11.1074 37.6925 11.1941 37.604C11.7808 37.0362 12.3695 36.4688 12.9539 35.901C13.2483 35.613 13.5958 35.4972 14.0044 35.5395C14.6356 35.6088 15.1141 36.2121 15.0273 36.8283C14.9871 37.1036 14.8685 37.3329 14.6672 37.5264C14.517 37.6736 14.5001 37.8692 14.6356 38.0078C14.841 38.2221 15.0569 38.4306 15.2772 38.6301C15.417 38.7563 15.6373 38.7372 15.7665 38.6027C15.8978 38.4621 15.8934 38.2643 15.7517 38.1192Z" fill="white"/>
      <path fill-rule="evenodd" clip-rule="evenodd" d="M26.8734 32.6679L37.6742 34.8241C37.6742 34.8241 38.2787 33.9346 38.657 32.7242L41.7896 23.9402C41.7896 23.9402 43.0451 15.6071 36.6162 14.0054C36.1662 13.8933 35.6984 14.1157 35.5017 14.5379L26.8734 32.6679Z" fill="#31CEA3"/>
      <path fill-rule="evenodd" clip-rule="evenodd" d="M28.0098 32.8379C28.0098 32.8379 25.9983 37.7208 28.0623 40.1753L43.1442 40.581L47.4834 54.7638L51.8228 54.2183L47.4834 38.9447C47.4834 38.9447 46.941 36.2174 43.1442 35.1263C37.9913 33.7626 28.0098 32.8379 28.0098 32.8379Z" fill="#565A5B"/>
      <path fill-rule="evenodd" clip-rule="evenodd" d="M46.6326 9.10185L45.5028 14.2274C45.4544 14.3325 45.4067 14.431 45.3662 14.5228C45.015 15.2506 44.2445 15.6821 43.445 15.6219C43.19 15.6029 42.9447 15.537 42.7173 15.4181L40.5234 14.3025L35.5536 11.7902C35.1966 11.5933 34.9887 11.2112 35.0177 10.8193L35.138 9.19802C35.3166 6.786 37.3389 4.41297 39.6218 3.95927C40.1838 3.85184 40.7466 3.81922 41.2971 3.86744C42.4382 3.9665 43.5501 4.39652 44.4624 5.11706C45.7068 6.10011 46.4894 7.5695 46.6326 9.10185Z" fill="#31CEA3"/>
      <path fill-rule="evenodd" clip-rule="evenodd" d="M37.7564 10.624C37.0156 10.5686 36.4579 9.91733 36.5129 9.17224C36.5684 8.42714 37.2157 7.86631 37.9567 7.92175C38.6975 7.9772 39.2552 8.62844 39.2 9.37352C39.1447 10.1186 38.4974 10.6795 37.7564 10.624Z" fill="#565A5B"/>
      <path fill-rule="evenodd" clip-rule="evenodd" d="M46.6329 9.10341L42.6578 8.29883L41.9421 8.83916L41.7606 11.289L42.357 12.3526L45.5031 14.2292L45.794 14.4071C45.8394 14.4308 45.8853 14.4479 45.939 14.4519C45.9996 14.4565 46.0611 14.4476 46.1174 14.4178C46.2231 14.3577 46.2917 14.2541 46.3001 14.1394L46.6536 9.36996C46.6467 9.28101 46.6464 9.19293 46.6329 9.10341Z" fill="#565A5B"/>
      <path fill-rule="evenodd" clip-rule="evenodd" d="M42.6572 8.29281L42.3567 12.3461L40.953 11.5071C40.8755 11.4606 40.8051 11.4078 40.7424 11.3419C40.5483 11.1372 40.4412 10.8507 40.4625 10.5601L40.5753 9.04022C40.5969 8.74968 40.7445 8.48891 40.9668 8.31563L40.974 8.30927C41.2034 8.12936 41.4989 8.06322 41.7852 8.11866L42.6572 8.29281Z" fill="#565A5B"/>
      <path fill-rule="evenodd" clip-rule="evenodd" d="M42.6572 8.2927L42.3568 12.3459L40.9531 11.507C40.8755 11.4605 40.8052 11.4076 40.7426 11.3418L40.9669 8.31551L40.9741 8.30915C41.2036 8.12924 41.4991 8.06339 41.7853 8.11855L42.6572 8.2927Z" fill="#565A5B"/>
      <path fill-rule="evenodd" clip-rule="evenodd" d="M32.7672 58.1984C32.7648 58.202 32.7626 58.2055 32.7603 58.2089C28.1663 58.193 23.5716 58.2062 18.9777 58.2062H10.9915C10.283 58.2062 9.78134 57.502 10.0183 56.8304C10.022 56.8207 10.0246 56.8132 10.0263 56.8088C10.5137 55.6085 11.1144 54.4528 11.8031 53.3575C15.3483 47.719 22.4729 42.7607 29.3607 44.6866C33.0308 45.7133 35.6571 48.724 35.1008 52.6909C34.8216 54.6836 33.8717 56.5201 32.7672 58.1984Z" fill="#FFC501"/>
      <path fill-rule="evenodd" clip-rule="evenodd" d="M17.1161 51.5646H26.4161V50.8262H17.1161V51.5646Z" fill="#D6A10D"/>
      <path fill-rule="evenodd" clip-rule="evenodd" d="M16.1361 53.5334H25.4361V52.7949H16.1361V53.5334Z" fill="#D6A10D"/>
      <path fill-rule="evenodd" clip-rule="evenodd" d="M17.1161 55.256H26.4161V54.5176H17.1161V55.256Z" fill="#D6A10D"/>
      <path fill-rule="evenodd" clip-rule="evenodd" d="M24.1176 46.1842C26.5572 46.0513 29.6829 46.0048 31.1642 48.3689C31.4157 48.7706 32.0522 48.3998 31.7988 47.9957C30.1605 45.3808 26.8556 45.2959 24.1176 45.4448C23.6469 45.4703 23.6441 46.2098 24.1176 46.1842Z" fill="white"/>
      <path fill-rule="evenodd" clip-rule="evenodd" d="M31.6802 49.8009C31.6931 49.8736 31.7052 49.9464 31.716 50.0194C31.7187 50.0365 31.7213 50.0534 31.7235 50.0703C31.7181 50.0285 31.7181 50.0293 31.7238 50.0733C31.7279 50.1073 31.7322 50.1411 31.7358 50.1748C31.7514 50.3161 31.7627 50.4579 31.7697 50.6C31.7838 50.8896 31.7793 51.1795 31.758 51.4687C31.7439 51.6622 31.9374 51.847 32.1255 51.8386C32.337 51.829 32.478 51.676 32.4935 51.4687C32.5391 50.8446 32.4989 50.2203 32.3892 49.6042C32.3553 49.4136 32.1138 49.2886 31.937 49.3461C31.7333 49.4124 31.6437 49.5964 31.6802 49.8009Z" fill="white"/>
      <path fill-rule="evenodd" clip-rule="evenodd" d="M39.2201 24.6787C40.3211 24.0728 41.3906 23.4112 42.4247 22.6958C42.6184 22.5614 42.4348 22.2412 42.2393 22.3763C41.2051 23.0917 40.1357 23.7536 39.0346 24.3595C38.827 24.4736 39.0122 24.793 39.2201 24.6787Z" fill="#249370"/>
      <path fill-rule="evenodd" clip-rule="evenodd" d="M43.5553 39.36C43.2869 39.6852 43.0762 40.0448 42.9211 40.4372C42.8855 40.5273 42.9599 40.6443 43.0495 40.6647C43.1555 40.689 43.2376 40.6322 43.2755 40.5357C43.2844 40.5137 43.2931 40.4921 43.3019 40.4705C43.2884 40.503 43.3157 40.4393 43.318 40.4337C43.337 40.3907 43.3571 40.3482 43.3775 40.3061C43.4188 40.2218 43.4633 40.1391 43.511 40.0583C43.5587 39.9774 43.6093 39.8985 43.663 39.8217C43.7261 39.7317 43.7476 39.7031 43.8151 39.6213C43.8766 39.5471 43.8929 39.4319 43.8151 39.36C43.7473 39.2976 43.621 39.2805 43.5553 39.36Z" fill="#838B8C"/>
      <path fill-rule="evenodd" clip-rule="evenodd" d="M43.1551 40.6781C43.4251 40.637 43.6886 40.5321 43.9153 40.3785C43.9948 40.3245 44.0374 40.2134 43.981 40.1256C43.9303 40.0461 43.8151 40.0017 43.7297 40.0595C43.6778 40.0944 43.6244 40.1273 43.5689 40.1568C43.5397 40.1724 43.5098 40.1871 43.4794 40.2012C43.4678 40.2065 43.4219 40.2347 43.4662 40.2075C43.4543 40.2149 43.4383 40.2191 43.4254 40.224C43.3064 40.2699 43.1833 40.3026 43.0574 40.3217C43.015 40.328 42.9682 40.371 42.9475 40.4066C42.9245 40.4462 42.9148 40.5045 42.9289 40.5489C42.9434 40.5938 42.9707 40.6367 43.0132 40.6596C43.0598 40.6841 43.1035 40.6859 43.1551 40.6781Z" fill="#838B8C"/>
      <path fill-rule="evenodd" clip-rule="evenodd" d="M42.9473 40.5491C43.2245 41.5574 43.5013 42.5653 43.7785 43.5734C43.8413 43.8025 44.1964 43.7051 44.1329 43.4753C43.856 42.467 43.5788 41.4589 43.3018 40.451C43.2389 40.222 42.8842 40.319 42.9473 40.5491Z" fill="#838B8C"/>
      <path fill-rule="evenodd" clip-rule="evenodd" d="M29.8478 35.747C30.9626 35.6213 31.9743 35.0311 32.6342 34.1185C32.7735 33.9259 32.4548 33.7409 32.3169 33.9319C31.7408 34.7281 30.8213 35.2676 29.8478 35.3773C29.7483 35.3885 29.6651 35.4541 29.6639 35.5621C29.6631 35.6534 29.7492 35.758 29.8478 35.747Z" fill="#838B8C"/>
      <path fill-rule="evenodd" clip-rule="evenodd" d="M37.2357 20.8907C37.2357 20.8907 37.8356 29.4044 39.7733 29.5924L41.5058 24.7349L38.5295 20.6738L37.2357 20.8907Z" fill="#269E79"/>
      <path fill-rule="evenodd" clip-rule="evenodd" d="M38.5878 22.3049L40.8554 26.2109L50.2232 31.6379C50.7653 33.0019 52.1214 32.456 52.6638 33.2746C52.916 33.4054 54.291 32.729 54.291 32.456L53.7485 31.3652L52.7934 31.0037L51.3078 30.8198L43.058 24.2419L41.0552 20.123L38.5878 22.3049Z" fill="#FEC5B5"/>
      <path fill-rule="evenodd" clip-rule="evenodd" d="M39.5344 15.5703L43.3018 22.5185L39.1412 24.7335L36.4492 20.0573L39.5344 15.5703Z" fill="#31CEA3"/>
      <path fill-rule="evenodd" clip-rule="evenodd" d="M36.6444 20.0648C37.3755 21.6179 38.1071 23.1712 38.8382 24.7246C38.9393 24.9394 39.2564 24.752 39.1556 24.538C38.4243 22.9846 37.6932 21.4315 36.9617 19.8782C36.8607 19.6634 36.5436 19.8508 36.6444 20.0648Z" fill="#249370"/>
    </g>
  </g>
  <defs>
    <clipPath id="clip0_13_200">
      <rect width="84" height="69" fill="white" transform="translate(0.660034 0.5)"/>
    </clipPath>
  </defs>
</svg>