<svg width="84" height="84" viewBox="0 0 84 84" fill="none" xmlns="http://www.w3.org/2000/svg">
<g id="family.svg" clip-path="url(#clip0_13_94)">
<g id="Clip path group">
<mask id="mask0_13_94" style="mask-type:luminance" maskUnits="userSpaceOnUse" x="0" y="0" width="84" height="84">
<g id="clip0_6269_51415">
<path id="Vector" d="M84 0H0V84H84V0Z" fill="white"/>
</g>
</mask>
<g mask="url(#mask0_13_94)">
<g id="Group">
<g id="Mask group">
<mask id="mask1_13_94" style="mask-type:alpha" maskUnits="userSpaceOnUse" x="6" y="16" width="66" height="13">
<g id="Group_2">
<path id="Vector_2" fill-rule="evenodd" clip-rule="evenodd" d="M6.89941 16.3359H71.802V28.7541H6.89941V16.3359Z" fill="white"/>
</g>
</mask>
<g mask="url(#mask1_13_94)">
<g id="Group_3">
<path id="Vector_3" fill-rule="evenodd" clip-rule="evenodd" d="M65.6276 28.7541H13.0738C9.66381 28.7541 6.89941 25.9745 6.89941 22.545C6.89941 19.1159 9.66381 16.3359 13.0738 16.3359H65.6276C69.0375 16.3359 71.802 19.1159 71.802 22.545C71.802 25.9745 69.0375 28.7541 65.6276 28.7541Z" fill="#FFC501"/>
</g>
</g>
</g>
<path id="Vector_4" fill-rule="evenodd" clip-rule="evenodd" d="M31.0863 21.7839C31.0439 21.6519 30.9275 21.5583 30.7896 21.5456L28.9193 21.375L28.1795 19.6341C28.125 19.5065 28.0008 19.4238 27.8628 19.4238C27.725 19.4238 27.6009 19.5065 27.5463 19.6344L26.8065 21.375L24.9359 21.5456C24.7983 21.5586 24.6822 21.6519 24.6395 21.7839C24.5969 21.9159 24.6363 22.0605 24.7403 22.1519L26.154 23.3988L25.7373 25.2456C25.7069 25.3814 25.7592 25.5218 25.8711 25.6032C25.9314 25.6469 26.0018 25.6694 26.0727 25.6694C26.1342 25.6694 26.1948 25.6526 26.2494 25.6199L27.8628 24.6501L29.4758 25.6199C29.5938 25.6913 29.7426 25.6847 29.8544 25.6032C29.9666 25.5215 30.0189 25.3811 29.9885 25.2456L29.5715 23.3988L30.9852 22.152C31.0892 22.0605 31.1289 21.9162 31.0863 21.7839Z" fill="white"/>
<path id="Vector_5" fill-rule="evenodd" clip-rule="evenodd" d="M19.599 21.7839C19.5565 21.6519 19.4401 21.5583 19.3023 21.5456L17.4319 21.375L16.6921 19.6341C16.6375 19.5065 16.5135 19.4238 16.3753 19.4238C16.2376 19.4238 16.1134 19.5065 16.059 19.6344L15.3192 21.375L13.4485 21.5456C13.3109 21.5586 13.1949 21.6519 13.1521 21.7839C13.1096 21.9159 13.149 22.0605 13.2529 22.1519L14.6667 23.3988L14.25 25.2456C14.2196 25.3814 14.2718 25.5218 14.3838 25.6032C14.4441 25.6469 14.5145 25.6694 14.5854 25.6694C14.6469 25.6694 14.7075 25.6526 14.7621 25.6199L16.3753 24.6501L17.9884 25.6199C18.1065 25.6913 18.2553 25.6847 18.367 25.6032C18.4792 25.5215 18.5316 25.3811 18.5011 25.2456L18.0841 23.3988L19.4979 22.152C19.6018 22.0605 19.6414 21.9162 19.599 21.7839Z" fill="white"/>
<path id="Vector_6" fill-rule="evenodd" clip-rule="evenodd" d="M42.5736 21.7839C42.5311 21.6519 42.4147 21.5583 42.2769 21.5456L40.4065 21.375L39.6667 19.6341C39.6123 19.5065 39.4881 19.4238 39.3501 19.4238C39.2122 19.4238 39.0882 19.5065 39.0336 19.6344L38.2938 21.375L36.4231 21.5456C36.2856 21.5586 36.1695 21.6519 36.1267 21.7839C36.0843 21.9159 36.1236 22.0605 36.2275 22.1519L37.6413 23.3988L37.2246 25.2456C37.1941 25.3814 37.2465 25.5218 37.3584 25.6032C37.4187 25.6469 37.489 25.6694 37.56 25.6694C37.6215 25.6694 37.6821 25.6526 37.7367 25.6199L39.3501 24.6501L40.963 25.6199C41.0811 25.6913 41.2299 25.6847 41.3416 25.6032C41.4538 25.5215 41.5062 25.3811 41.4757 25.2456L41.0587 23.3988L42.4725 22.152C42.5764 22.0605 42.6162 21.9162 42.5736 21.7839Z" fill="white"/>
<path id="Vector_7" fill-rule="evenodd" clip-rule="evenodd" d="M54.0609 21.7839C54.0184 21.6519 53.902 21.5583 53.7642 21.5456L51.8938 21.375L51.154 19.6341C51.0994 19.5065 50.9754 19.4238 50.8372 19.4238C50.6994 19.4238 50.5753 19.5065 50.5209 19.6344L49.7811 21.375L47.9104 21.5456C47.7729 21.5586 47.6568 21.6519 47.614 21.7839C47.5716 21.9159 47.6109 22.0605 47.7148 22.1519L49.1286 23.3988L48.7119 25.2456C48.6814 25.3814 48.7338 25.5218 48.8457 25.6032C48.906 25.6469 48.9763 25.6694 49.0473 25.6694C49.1088 25.6694 49.1694 25.6526 49.224 25.6199L50.8372 24.6501L52.4503 25.6199C52.5684 25.6913 52.7172 25.6847 52.8289 25.6032C52.9411 25.5215 52.9935 25.3811 52.963 25.2456L52.546 23.3988L53.9598 22.152C54.0637 22.0605 54.1033 21.9162 54.0609 21.7839Z" fill="white"/>
<path id="Vector_8" fill-rule="evenodd" clip-rule="evenodd" d="M65.5482 21.7839C65.5057 21.6519 65.3895 21.5583 65.2516 21.5456L63.3811 21.375L62.6413 19.6341C62.5869 19.5065 62.4628 19.4238 62.3247 19.4238C62.1868 19.4238 62.0628 19.5065 62.0082 19.6344L61.2684 21.375L59.3977 21.5456C59.2602 21.5586 59.1441 21.6519 59.1013 21.7839C59.0589 21.9159 59.0982 22.0605 59.2021 22.1519L60.6159 23.3988L60.1992 25.2456C60.1687 25.3814 60.2211 25.5218 60.333 25.6032C60.3933 25.6469 60.4638 25.6694 60.5346 25.6694C60.5961 25.6694 60.6567 25.6526 60.7113 25.6199L62.3247 24.6501L63.9378 25.6199C64.0558 25.6913 64.2045 25.6847 64.3162 25.6032C64.4286 25.5215 64.4808 25.3811 64.4503 25.2456L64.0333 23.3988L65.4471 22.152C65.5512 22.0605 65.5908 21.9162 65.5482 21.7839Z" fill="white"/>
<path id="Vector_9" fill-rule="evenodd" clip-rule="evenodd" d="M52.4813 76.7179C52.8368 73.4523 51.8382 62.6559 53.2742 55.4361C54.7101 48.2161 61.3838 50.4376 61.3838 50.4376C67.989 48.7048 68.5679 65.5981 67.989 75.8515L52.4813 76.7179Z" fill="#565A5B"/>
<g id="Mask group_2">
<mask id="mask2_13_94" style="mask-type:alpha" maskUnits="userSpaceOnUse" x="-4" y="16" width="94" height="69">
<g id="Group_4">
<path id="Vector_10" fill-rule="evenodd" clip-rule="evenodd" d="M-3.49951 84.5802H89.6777V16.3359H-3.49951V84.5802Z" fill="white"/>
</g>
</mask>
<g mask="url(#mask2_13_94)">
<g id="Group_5">
<path id="Vector_11" fill-rule="evenodd" clip-rule="evenodd" d="M58.2246 70.3078H61.6707V65.1094H58.2246V70.3078Z" fill="#FEC5B5"/>
<path id="Vector_12" fill-rule="evenodd" clip-rule="evenodd" d="M58.2246 67.4753C59.3733 68.1724 60.522 68.1724 61.6707 67.4753V65.1094H58.2246V67.4753Z" fill="#EF998B"/>
<path id="Vector_13" fill-rule="evenodd" clip-rule="evenodd" d="M72.3461 84.3734H46.4511C46.4109 83.3396 46.4138 81.7829 46.6292 80.183V80.1743C46.8446 78.5947 47.2668 76.9717 48.0708 75.7702C48.3522 75.3457 48.6825 74.9732 49.0703 74.6728C49.0817 74.6612 49.0961 74.6527 49.1105 74.6411L51.1724 73.3964L52.548 72.5675L54.2309 71.551L58.2255 69.1424L58.685 68.8652H61.172C61.172 68.8652 61.3557 68.9749 61.6716 69.1684C62.2488 69.5207 63.2712 70.1531 64.4315 70.9127C65.6175 71.6896 66.9471 72.5963 68.0958 73.4714V73.4743C68.1504 73.5148 68.205 73.5551 68.2566 73.5956C68.9373 74.1212 69.5462 74.6296 70.017 75.0916C70.0602 75.1321 70.1004 75.1753 70.1406 75.2158C70.3445 75.4208 70.514 75.6172 70.6488 75.7963C71.9355 77.5204 72.26 82.1411 72.3461 84.3734Z" fill="#FEC5B5"/>
<path id="Vector_14" fill-rule="evenodd" clip-rule="evenodd" d="M63.0381 61.0651C63.0381 61.7828 63.6168 62.3647 64.3303 62.3647C65.044 62.3647 65.6227 61.7828 65.6227 61.0651C65.6227 60.3475 65.044 59.7656 64.3303 59.7656C63.6168 59.7656 63.0381 60.3475 63.0381 61.0651Z" fill="#EF998B"/>
<path id="Vector_15" fill-rule="evenodd" clip-rule="evenodd" d="M54.4233 61.0651C54.4233 61.7828 55.002 62.3647 55.7157 62.3647C56.4293 62.3647 57.008 61.7828 57.008 61.0651C57.008 60.3475 56.4293 59.7656 55.7157 59.7656C55.002 59.7656 54.4233 60.3475 54.4233 61.0651Z" fill="#EF998B"/>
<path id="Vector_16" fill-rule="evenodd" clip-rule="evenodd" d="M24.4127 52.9805L24.2966 55.664L24.1254 59.6228L22.4024 61.9332L20.9664 60.4892L20.3921 52.9805H24.4127Z" fill="#FEC5B5"/>
<path id="Vector_17" fill-rule="evenodd" clip-rule="evenodd" d="M35.6139 64.8208V66.441V84.3723H8.90625V66.3255C8.90625 65.2222 9.51793 64.2144 10.4915 63.7119L19.2906 59.1691L19.5319 59.0449L20.3934 59.6224L20.9304 60.0094L21.1688 60.1798L21.232 60.2232L22.0303 60.8008H22.0332L22.3377 61.0203L22.4037 61.0665L22.7139 60.8065L23.5007 60.148L24.1267 59.6224L26.1371 59.0449L33.4113 63.4779L35.3498 64.6591L35.3526 64.662L35.6139 64.8208Z" fill="#31CEA3"/>
<path id="Vector_18" fill-rule="evenodd" clip-rule="evenodd" d="M35.356 56.3543C35.356 57.0719 34.7775 57.6539 34.0638 57.6539C33.3501 57.6539 32.7715 57.0719 32.7715 56.3543C32.7715 55.6367 33.3501 55.0547 34.0638 55.0547C34.7775 55.0547 35.356 55.6367 35.356 56.3543Z" fill="#EF998B"/>
<path id="Vector_19" fill-rule="evenodd" clip-rule="evenodd" d="M45.4079 56.0672C45.4079 56.7848 44.8292 57.3668 44.1156 57.3668C43.4019 57.3668 42.8232 56.7848 42.8232 56.0672C42.8232 55.3496 43.4019 54.7676 44.1156 54.7676C44.8292 54.7676 45.4079 55.3496 45.4079 56.0672Z" fill="#EF998B"/>
<path id="Vector_20" fill-rule="evenodd" clip-rule="evenodd" d="M36.5044 56.2115C36.5044 56.2115 30.7609 62.565 34.7814 65.7417C38.802 68.9186 40.2378 72.6728 40.2378 72.6728C40.2378 72.6728 49.1404 62.565 42.8224 58.233C36.7405 54.0632 36.5044 56.2115 36.5044 56.2115Z" fill="#929B9B"/>
<path id="Vector_21" fill-rule="evenodd" clip-rule="evenodd" d="M37.3666 65.1607H40.8129V59.3848H37.3666V65.1607Z" fill="#FEC5B5"/>
<path id="Vector_22" fill-rule="evenodd" clip-rule="evenodd" d="M40.8129 61.984C39.6642 62.68 38.5153 62.68 37.3666 61.984V59.3848H40.8129V61.984Z" fill="#EF998B"/>
<path id="Vector_23" fill-rule="evenodd" clip-rule="evenodd" d="M33.9194 47.5446C33.9194 47.5446 29.0373 50.7215 34.4937 55.3421C39.9501 59.9628 36.5038 47.2559 36.5038 47.2559L33.9194 47.5446Z" fill="#929B9B"/>
<path id="Vector_24" fill-rule="evenodd" clip-rule="evenodd" d="M39.0891 61.4076C36.2343 61.4076 33.92 59.0802 33.92 56.2094V48.123H44.2584V56.2094C44.2584 59.0802 41.9441 61.4076 39.0891 61.4076Z" fill="#FEC5B5"/>
<path id="Vector_25" fill-rule="evenodd" clip-rule="evenodd" d="M36.8817 57.0787H34.4047C33.9786 57.0787 33.6328 56.731 33.6328 56.3025V54.3895C33.6328 53.961 33.9786 53.6133 34.4047 53.6133H36.8817C37.3078 53.6133 37.6536 53.961 37.6536 54.3895V56.3025C37.6536 56.731 37.3078 57.0787 36.8817 57.0787Z" fill="#FFE2DC"/>
<path id="Vector_26" fill-rule="evenodd" clip-rule="evenodd" d="M36.8817 57.0787H34.4047C33.9786 57.0787 33.6328 56.731 33.6328 56.3025V54.3895C33.6328 53.961 33.9786 53.6133 34.4047 53.6133H36.8817C37.3078 53.6133 37.6536 53.961 37.6536 54.3895V56.3025C37.6536 56.731 37.3078 57.0787 36.8817 57.0787Z" stroke="#565A5B" stroke-width="1.5"/>
<path id="Vector_27" fill-rule="evenodd" clip-rule="evenodd" d="M43.4866 57.0787H41.0097C40.5835 57.0787 40.2378 56.731 40.2378 56.3025V54.3895C40.2378 53.961 40.5835 53.6133 41.0097 53.6133H43.4866C43.9128 53.6133 44.2585 53.961 44.2585 54.3895V56.3025C44.2585 56.731 43.9128 57.0787 43.4866 57.0787Z" fill="#FFE2DC"/>
<path id="Vector_28" fill-rule="evenodd" clip-rule="evenodd" d="M43.4866 57.0787H41.0097C40.5835 57.0787 40.2378 56.731 40.2378 56.3025V54.3895C40.2378 53.961 40.5835 53.6133 41.0097 53.6133H43.4866C43.9128 53.6133 44.2585 53.961 44.2585 54.3895V56.3025C44.2585 56.731 43.9128 57.0787 43.4866 57.0787Z" stroke="#565A5B" stroke-width="1.5"/>
<path id="Vector_29" fill-rule="evenodd" clip-rule="evenodd" d="M42.5351 54.192C39.2949 53.2869 36.7665 51.7932 34.9593 50.2185C33.6627 49.0884 32.1831 47.301 33.0582 45.8169C33.4872 45.0891 35.2479 44.4451 36.2172 44.6617C38.8019 45.2392 43.971 45.5281 44.8326 48.4161C45.5753 50.9058 47.7044 55.6359 42.5351 54.192Z" fill="#929B9B"/>
<path id="Vector_30" fill-rule="evenodd" clip-rule="evenodd" d="M24.338 55.3469V52.459L20.3174 53.0365L20.6285 56.0689L24.338 55.3469Z" fill="#EF998B"/>
<path id="Vector_31" fill-rule="evenodd" clip-rule="evenodd" d="M26.997 46.0455C26.997 46.8432 27.6398 47.4895 28.433 47.4895C29.2259 47.4895 29.8689 46.8432 29.8689 46.0455C29.8689 45.2481 29.2259 44.6016 28.433 44.6016C27.6398 44.6016 26.997 45.2481 26.997 46.0455Z" fill="#EF998B"/>
<path id="Vector_32" fill-rule="evenodd" clip-rule="evenodd" d="M14.9355 46.0455C14.9355 46.8432 15.5783 47.4895 16.3715 47.4895C17.1644 47.4895 17.8074 46.8432 17.8074 46.0455C17.8074 45.2481 17.1644 44.6016 16.3715 44.6016C15.5783 44.6016 14.9355 45.2481 14.9355 46.0455Z" fill="#EF998B"/>
<path id="Vector_33" fill-rule="evenodd" clip-rule="evenodd" d="M28.4338 43.8595C28.2901 43.5951 29.7261 40.7071 29.1517 39.2631C28.5774 37.8192 27.4287 36.6639 25.9927 36.9528C24.5569 37.2415 28.2901 41.5735 28.2901 41.5735L28.4338 43.8595Z" fill="#565A5B"/>
<path id="Vector_34" fill-rule="evenodd" clip-rule="evenodd" d="M17.9519 37.2395C17.9519 37.2395 13.9314 37.872 16.3725 41.7432C18.8135 45.6146 18.5264 38.6835 18.5264 38.6835C18.5264 38.6835 19.6751 36.9507 17.9519 37.2395Z" fill="#565A5B"/>
<path id="Vector_35" fill-rule="evenodd" clip-rule="evenodd" d="M60.0231 66.1169C62.6402 66.1169 64.7616 63.9834 64.7616 61.3517V55.1426H55.2846V61.3517C55.2846 63.9834 57.4061 66.1169 60.0231 66.1169Z" fill="#FEC5B5"/>
<path id="Vector_36" fill-rule="evenodd" clip-rule="evenodd" d="M60.8853 63.0879H58.5879C58.5879 63.0879 59.7366 65.3982 60.8853 63.0879Z" fill="white"/>
<path id="Vector_37" fill-rule="evenodd" clip-rule="evenodd" d="M37.8648 58.6641H40.1622C40.1622 58.6641 39.0135 60.9744 37.8648 58.6641Z" fill="white"/>
<path id="Vector_38" fill-rule="evenodd" clip-rule="evenodd" d="M54.4233 58.8963C60.4541 59.4739 63.0387 53.9868 63.0387 53.9868C63.1074 53.8978 55.3535 53.3203 55.3535 53.3203L54.4233 58.8963Z" fill="#565A5B"/>
<path id="Vector_39" fill-rule="evenodd" clip-rule="evenodd" d="M72.3461 84.371H46.4511C46.4109 83.3371 46.4138 81.7805 46.6292 80.1806V80.1719C46.8446 78.5921 47.2668 76.9691 48.0708 75.7678C48.3522 75.3433 48.6825 74.9707 49.0703 74.6704C49.0817 74.6588 49.0961 74.6501 49.1105 74.6386L51.1724 73.3939L52.548 72.565L54.2309 71.5484C59.0985 76.1605 63.0989 72.4639 64.4315 70.9102C65.6175 71.687 66.9471 72.5939 68.0958 73.469C68.1504 73.5094 68.2022 73.5499 68.2566 73.5931C68.9373 74.1187 69.5462 74.627 70.017 75.089C70.0602 75.1295 70.1004 75.1729 70.1406 75.2132C70.3445 75.4183 70.514 75.6148 70.6488 75.7937C71.9355 77.5178 72.26 82.1386 72.3461 84.371Z" fill="#31CEA3"/>
<path id="Vector_40" fill-rule="evenodd" clip-rule="evenodd" d="M18.348 37.6741C18.348 37.6741 16.3725 38.8293 16.3725 40.5621V48.3171C16.3725 49.2618 16.54 50.2017 16.8997 51.0718C17.3745 52.2201 18.2398 53.5356 19.7595 53.8467H24.2754C24.2754 53.8467 26.3884 54.0433 27.7621 51.3552C28.273 50.3554 28.509 49.2319 28.509 48.1036V41.4285C28.509 41.4285 28.509 38.5405 26.5332 37.6741C24.5577 36.8077 18.348 37.6741 18.348 37.6741Z" fill="#FEC5B5"/>
<path id="Vector_41" fill-rule="evenodd" clip-rule="evenodd" d="M22.5528 84.3732V65.8804V60.8479C22.5528 60.5692 22.122 60.5686 22.122 60.8479V79.1538V84.3732C22.122 84.6519 22.5528 84.6523 22.5528 84.3732Z" fill="#249370"/>
<path id="Vector_42" fill-rule="evenodd" clip-rule="evenodd" d="M20.1049 65.2514C20.1049 65.6501 20.4264 65.9733 20.823 65.9733C21.2193 65.9733 21.5409 65.6501 21.5409 65.2514C21.5409 64.8525 21.2193 64.5293 20.823 64.5293C20.4264 64.5293 20.1049 64.8525 20.1049 65.2514Z" fill="#249370"/>
<path id="Vector_43" fill-rule="evenodd" clip-rule="evenodd" d="M20.1049 73.0501C20.1049 73.4489 20.4264 73.772 20.823 73.772C21.2193 73.772 21.5409 73.4489 21.5409 73.0501C21.5409 72.6512 21.2193 72.3281 20.823 72.3281C20.4264 72.3281 20.1049 72.6512 20.1049 73.0501Z" fill="#249370"/>
<path id="Vector_44" fill-rule="evenodd" clip-rule="evenodd" d="M20.1049 80.8489C20.1049 81.2478 20.4264 81.5709 20.823 81.5709C21.2193 81.5709 21.5409 81.2478 21.5409 80.8489C21.5409 80.4501 21.2193 80.127 20.823 80.127C20.4264 80.127 20.1049 80.4501 20.1049 80.8489Z" fill="#249370"/>
<path id="Vector_45" fill-rule="evenodd" clip-rule="evenodd" d="M12.0265 84.3697V69.7306C12.0265 69.4521 11.5957 69.4515 11.5957 69.7306V84.3697C11.5957 84.6484 12.0265 84.649 12.0265 84.3697Z" fill="#249370"/>
<path id="Vector_46" fill-rule="evenodd" clip-rule="evenodd" d="M22.2597 53.8445H19.8187C18.2782 53.5346 17.3989 52.2278 16.9144 51.0825C16.5451 50.2089 16.3725 49.2642 16.3725 48.315V45.9434C16.5618 47.1119 16.8934 49.0629 17.0905 49.6569C17.3776 50.5233 19.1007 50.5233 19.1007 50.5233L19.2868 49.8681C19.5166 49.0595 20.2518 48.5018 21.088 48.5018H22.2597H22.6905H23.8621C24.6984 48.5018 25.4334 49.0595 25.6633 49.8681L25.8495 50.5233C25.8495 50.5233 27.5725 50.5233 27.8598 49.6569C28.0567 49.0629 28.3884 47.1119 28.5777 45.9434V48.315C28.5777 49.2642 28.405 50.2089 28.0354 51.0825C27.5512 52.2278 26.6719 53.5346 25.1316 53.8445H22.6905H22.2597Z" fill="#565A5B"/>
<path id="Vector_47" fill-rule="evenodd" clip-rule="evenodd" d="M20.5356 49.8574H24.269C24.269 49.8574 22.4772 53.0341 20.5356 49.8574Z" fill="white"/>
<path id="Vector_48" fill-rule="evenodd" clip-rule="evenodd" d="M18.0243 43.975C18.003 44.0097 17.9817 44.044 17.9605 44.0784C18.1465 44.1879 18.3324 44.2974 18.5185 44.4064C18.54 44.3557 18.5632 44.3062 18.5914 44.259C18.6052 44.2353 18.6201 44.2125 18.6354 44.1897C18.6675 44.1417 18.5889 44.2407 18.6543 44.1636C18.6897 44.1217 18.7272 44.0818 18.7677 44.0446C18.7839 44.0299 18.8005 44.0155 18.8175 44.0013C18.7789 44.0331 18.8574 43.9738 18.8574 43.9735C18.8985 43.9461 18.9412 43.9213 18.9852 43.8988C18.9993 43.8919 19.0527 43.867 19.0125 43.8841C19.0377 43.873 19.0638 43.8645 19.0897 43.8561C19.1416 43.839 19.1944 43.8261 19.2484 43.8162C19.3036 43.8061 19.1773 43.8171 19.276 43.813C19.3036 43.8118 19.3306 43.8099 19.3582 43.8099C19.3857 43.8099 19.4127 43.8115 19.4403 43.8127C19.4598 43.8133 19.4874 43.8177 19.4521 43.8124C19.5058 43.8202 19.5595 43.8336 19.6114 43.8495C19.6377 43.8574 19.6635 43.8664 19.6887 43.8763C19.71 43.8843 19.7094 43.8841 19.6873 43.8751C19.6974 43.8801 19.7071 43.8846 19.7172 43.8892C19.7653 43.9152 19.8133 43.941 19.8594 43.9713C19.8657 43.9753 19.9288 44.0215 19.9065 44.0041C19.8871 43.9888 19.9503 44.0428 19.9495 44.0421C19.99 44.079 20.0275 44.1192 20.0632 44.1607C20.0724 44.1717 20.0925 44.2006 20.073 44.1732C20.0887 44.1954 20.104 44.2182 20.1183 44.2416C20.1324 44.265 20.1462 44.2887 20.1588 44.3133C20.1637 44.3227 20.1996 44.4057 20.1798 44.3559C20.2441 44.5188 20.3961 44.6329 20.5773 44.5827C20.7315 44.5402 20.8675 44.3473 20.803 44.1832C20.5716 43.5973 20.0281 43.1776 19.3909 43.1607C18.7959 43.1445 18.1939 43.5265 17.9605 44.0784C17.8924 44.2399 17.9125 44.4267 18.0765 44.5231C18.2307 44.6139 18.4263 44.5561 18.5185 44.4064C18.5397 44.3721 18.561 44.3374 18.5823 44.3031C18.6741 44.1538 18.6141 43.9453 18.4665 43.8583C18.312 43.7677 18.1164 43.8255 18.0243 43.975Z" fill="#565A5B"/>
<path id="Vector_49" fill-rule="evenodd" clip-rule="evenodd" d="M24.3437 43.975C24.3224 44.0097 24.3011 44.044 24.2799 44.0784C24.4659 44.1879 24.6518 44.2974 24.8379 44.4064C24.8594 44.3557 24.8826 44.3062 24.9108 44.259C24.9246 44.2353 24.9395 44.2125 24.9548 44.1897C24.9869 44.1417 24.9083 44.2407 24.9737 44.1636C25.0091 44.1217 25.0466 44.0818 25.0871 44.0446C25.1033 44.0299 25.1199 44.0155 25.1369 44.0013C25.0983 44.0331 25.1768 43.9738 25.1768 43.9735C25.2177 43.9461 25.2606 43.9213 25.3046 43.8988C25.3185 43.8919 25.3721 43.867 25.3319 43.8841C25.3571 43.873 25.3832 43.8645 25.4091 43.8561C25.461 43.839 25.5138 43.8261 25.5678 43.8162C25.623 43.8061 25.4966 43.8171 25.5954 43.813C25.623 43.8118 25.65 43.8099 25.6776 43.8099C25.7051 43.8099 25.7321 43.8115 25.7597 43.8127C25.7792 43.8133 25.8068 43.8177 25.7715 43.8124C25.8252 43.8202 25.8789 43.8336 25.9308 43.8495C25.9569 43.8574 25.9829 43.8664 26.0081 43.8763C26.0294 43.8843 26.0288 43.8841 26.0067 43.8751C26.0168 43.8801 26.0265 43.8846 26.0366 43.8892C26.0847 43.9152 26.1327 43.941 26.1786 43.9713C26.1851 43.9753 26.2482 44.0215 26.2257 44.0041C26.2065 43.9888 26.2697 44.0428 26.2689 44.0421C26.3094 44.079 26.3469 44.1192 26.3826 44.1607C26.3918 44.1717 26.4119 44.2006 26.3924 44.1732C26.4081 44.1954 26.4234 44.2182 26.4377 44.2416C26.4518 44.265 26.4656 44.2887 26.4782 44.3133C26.4831 44.3227 26.519 44.4057 26.4992 44.3559C26.5635 44.5188 26.7155 44.6329 26.8967 44.5827C27.0509 44.5402 27.1869 44.3473 27.1224 44.1832C26.8908 43.5973 26.3475 43.1776 25.7103 43.1607C25.1153 43.1445 24.5133 43.5265 24.2799 44.0784C24.2118 44.2399 24.2319 44.4267 24.3959 44.5231C24.5501 44.6139 24.7457 44.5561 24.8379 44.4064C24.8591 44.3721 24.8804 44.3374 24.9017 44.3031C24.9935 44.1538 24.9335 43.9453 24.7859 43.8583C24.6314 43.7677 24.4358 43.8255 24.3437 43.975Z" fill="#565A5B"/>
<path id="Vector_50" fill-rule="evenodd" clip-rule="evenodd" d="M36.5861 55.5106C36.6068 55.5442 36.6273 55.578 36.648 55.6114C36.7076 55.7082 36.8355 55.7455 36.935 55.6872C37.0427 55.6239 37.0547 55.504 37.0103 55.3986C36.7965 54.8932 36.2546 54.5424 35.7081 54.5571C35.1381 54.5724 34.6418 54.9498 34.4345 55.4751C34.3928 55.5811 34.4801 55.7068 34.5809 55.7344C34.7004 55.7677 34.7969 55.6938 34.8392 55.5874C34.9802 55.23 35.3595 54.9772 35.7401 54.9784C36.1424 54.9796 36.4938 55.2465 36.648 55.6114L37.0103 55.3986C36.9896 55.3651 36.9689 55.3314 36.9482 55.2978C36.8066 55.0674 36.4436 55.279 36.5861 55.5106Z" fill="#565A5B"/>
<path id="Vector_51" fill-rule="evenodd" clip-rule="evenodd" d="M43.191 55.5106C43.2117 55.5442 43.2324 55.578 43.2531 55.6114C43.3125 55.7082 43.4406 55.7455 43.5399 55.6872C43.6476 55.6239 43.6596 55.504 43.6152 55.3986C43.4015 54.8932 42.8597 54.5424 42.3131 54.5571C41.7431 54.5724 41.2469 54.9498 41.0394 55.4751C40.9979 55.5811 41.0852 55.7068 41.186 55.7344C41.3054 55.7677 41.4018 55.6938 41.4441 55.5874C41.5851 55.23 41.9645 54.9772 42.345 54.9784C42.7473 54.9796 43.0988 55.2465 43.2531 55.6114L43.6152 55.3986C43.5945 55.3651 43.5738 55.3314 43.5531 55.2978C43.4115 55.0674 43.0485 55.279 43.191 55.5106Z" fill="#565A5B"/>
<path id="Vector_52" fill-rule="evenodd" clip-rule="evenodd" d="M61.2285 60.2081C61.2078 60.2418 61.1871 60.2753 61.1664 60.309L61.5287 60.5216C61.6829 60.1566 62.0343 59.8898 62.4366 59.8886C62.8169 59.8875 63.1965 60.1401 63.3375 60.4977C63.3795 60.6033 63.4779 60.6773 63.5957 60.645C63.6957 60.6173 63.7841 60.4919 63.7419 60.3857C63.5345 59.8601 63.0386 59.4825 62.4686 59.4672C61.922 59.4525 61.3802 59.8034 61.1664 60.309C61.1222 60.4136 61.1352 60.5349 61.2417 60.5976C61.3419 60.6563 61.4688 60.6189 61.5287 60.5216C61.5492 60.4881 61.5699 60.4547 61.5906 60.4209C61.7328 60.1895 61.3704 59.9775 61.2285 60.2081Z" fill="#565A5B"/>
<path id="Vector_53" fill-rule="evenodd" clip-rule="evenodd" d="M56.3462 60.2081C56.3255 60.2418 56.3048 60.2753 56.2842 60.309L56.6463 60.5216C56.8005 60.1566 57.152 59.8898 57.5543 59.8886C57.9345 59.8875 58.3142 60.1401 58.4552 60.4977C58.4972 60.6033 58.5957 60.6773 58.7133 60.645C58.8134 60.6173 58.9017 60.4919 58.8596 60.3857C58.6523 59.8601 58.1562 59.4825 57.5862 59.4672C57.0398 59.4525 56.4978 59.8034 56.2842 60.309C56.24 60.4136 56.2529 60.5349 56.3594 60.5976C56.4596 60.6563 56.5865 60.6189 56.6463 60.5216C56.667 60.4881 56.6876 60.4547 56.7083 60.4209C56.8505 60.1895 56.4881 59.9775 56.3462 60.2081Z" fill="#565A5B"/>
<path id="Vector_54" fill-rule="evenodd" clip-rule="evenodd" d="M27.141 36.6606C27.141 36.6606 25.1307 39.8375 21.9718 39.2598C18.8128 38.6822 17.9512 37.2383 17.9512 37.2383C17.9512 37.2383 17.3769 36.0831 19.0999 35.5055C20.823 34.9278 28.2897 35.2167 27.141 36.6606Z" fill="#565A5B"/>
<path id="Vector_55" d="M37.6537 54.7654H40.2384" stroke="#565A5B" stroke-width="1.5"/>
<path id="Vector_56" fill-rule="evenodd" clip-rule="evenodd" d="M37.0176 57.6055C36.9213 58.1242 36.3815 58.5267 35.856 58.432C35.7864 58.4193 35.7149 58.4508 35.6951 58.5235C35.6777 58.5874 35.7164 58.6726 35.7861 58.6852C36.4433 58.804 37.1454 58.3446 37.2695 57.6754C37.2824 57.6058 37.2504 57.5335 37.1784 57.514C37.1147 57.4963 37.0305 57.5353 37.0176 57.6055Z" fill="#EF8A7F"/>
<path id="Vector_57" fill-rule="evenodd" clip-rule="evenodd" d="M40.1669 57.4768C40.4738 58.2464 41.4132 58.6844 42.1911 58.3754C42.3456 58.3139 42.2784 58.0598 42.1217 58.1222C41.4879 58.3738 40.6769 58.054 40.4187 57.4069C40.3923 57.3404 40.332 57.2957 40.2582 57.3151C40.1958 57.3317 40.1406 57.4109 40.1669 57.4768Z" fill="#EF8A7F"/>
<path id="Vector_58" fill-rule="evenodd" clip-rule="evenodd" d="M51.9396 84.3698H48.7719L48.2436 77.8922L48.2205 77.5976L48.2177 77.5774C48.2034 77.6035 48.189 77.6294 48.1746 77.6554C47.7726 78.3457 47.3562 78.7961 47.1983 78.9578L47.1465 79.0099C47.135 79.0184 47.1293 79.0243 47.1293 79.0243V84.3698H28.9337V78.9059C28.9337 78.9059 29.0427 76.6822 29.2754 74.2852C29.2839 74.2013 29.2926 74.1176 29.2983 74.0339C29.3127 73.9039 29.3241 73.774 29.3385 73.6469C29.3702 73.3466 29.4017 73.0492 29.4362 72.7546C29.6286 71.1373 29.8755 69.6442 30.1857 68.9164C30.2115 68.8501 30.2489 68.7808 30.2919 68.7115C30.6338 68.1251 31.4034 67.4204 32.328 66.7159C32.4056 66.6581 32.4831 66.6004 32.5607 66.5396C32.7962 66.3635 33.0374 66.1873 33.2844 66.014C33.2844 66.014 33.2873 66.014 33.2901 66.0112C33.4739 65.8841 33.6578 65.7571 33.8444 65.6329C33.965 65.5492 34.0884 65.4653 34.212 65.3845C34.2464 65.3614 34.2837 65.3383 34.3182 65.3152C34.571 65.1506 34.8207 64.9888 35.0621 64.8386C35.1108 64.8068 35.1597 64.7752 35.2085 64.7462C35.2574 64.7174 35.3033 64.6885 35.352 64.6597C35.4497 64.5961 35.5473 64.5383 35.6421 64.4777C35.8403 64.3564 36.0327 64.2409 36.2165 64.1311C36.4404 63.9983 36.6501 63.8741 36.8397 63.7643C37.0379 63.6488 37.2159 63.5477 37.3652 63.464C37.7241 63.259 37.9395 63.1406 37.9395 63.1406L40.8114 63.5998L41.5839 63.7874H41.5868L42.1898 63.9319L43.4735 64.2409L43.8009 64.3189L44.783 64.5556L44.8146 64.5643L45.1535 64.6451C46.0323 64.8214 46.8192 65.1304 47.5055 65.552C47.6031 65.6126 47.6979 65.6762 47.7927 65.7397C47.8616 65.7859 47.9277 65.8321 47.9937 65.8813C48.0483 65.9216 48.1028 65.9621 48.1545 66.0025C48.2321 66.0602 48.3068 66.1238 48.3785 66.1873C48.4418 66.2393 48.5021 66.2942 48.5624 66.352C48.6657 66.4444 48.7662 66.5426 48.8582 66.6436C48.9185 66.7043 48.9759 66.7649 49.0304 66.8285C49.1712 66.9844 49.3032 67.1461 49.4267 67.3136C49.4957 67.4032 49.5588 67.4956 49.622 67.588C49.6737 67.666 49.7255 67.744 49.7742 67.8248C49.7771 67.8277 49.7799 67.8305 49.7799 67.8335C49.7972 67.8595 49.8144 67.8854 49.8288 67.9085C49.9407 68.0905 50.0442 68.2753 50.136 68.4688C50.1878 68.5699 50.2365 68.6738 50.2854 68.7778C50.3199 68.8558 50.3543 68.9366 50.3888 69.0146C50.4377 69.136 50.4864 69.2572 50.5323 69.3814C50.5755 69.5056 50.6186 69.6298 50.6588 69.7568C50.7564 70.0543 50.8368 70.3604 50.9028 70.6723C50.9345 70.8139 50.9603 70.9582 50.9832 71.1026C51.0062 71.2441 51.0293 71.3885 51.0494 71.5358C51.0608 71.6311 51.0723 71.7293 51.0837 71.8276C51.1298 72.2318 51.1499 72.6419 51.1499 73.0607L51.1728 73.3928L51.6065 79.6048L51.9396 84.3698Z" fill="#FEC5B5"/>
<path id="Vector_59" fill-rule="evenodd" clip-rule="evenodd" d="M48.5712 71.809C48.5655 71.7975 48.5627 71.7888 48.557 71.7772L48.5541 71.1997L48.5712 71.809ZM51.1731 73.3945L51.1502 73.0624L51.1473 73.0249C51.1445 72.6205 51.1243 72.222 51.0842 71.8293C51.0726 71.731 51.0611 71.6329 51.0497 71.5375C51.0296 71.3902 51.0066 71.2459 50.9837 71.1043C50.9577 70.9629 50.9319 70.8184 50.9002 70.6798C50.8342 70.3651 50.7539 70.059 50.6591 69.7585C50.6189 69.6315 50.5758 69.5073 50.5328 69.3832C50.4867 69.259 50.438 69.1377 50.3891 69.0163C50.3547 68.9385 50.3202 68.8576 50.2857 68.7796C50.237 68.6757 50.1881 68.5717 50.1365 68.4706C50.0417 68.2771 49.9383 68.0923 49.8291 67.9104C49.8147 67.8873 49.7976 67.8612 49.7804 67.8352C49.7804 67.8352 49.7775 67.8294 49.7745 67.8265C49.7257 67.7457 49.674 67.6677 49.6224 67.5897C49.5593 67.4973 49.496 67.4049 49.4271 67.3153C49.3037 67.1479 49.1715 66.9862 49.0308 66.8302C48.9762 66.7666 48.9188 66.706 48.8585 66.6454C48.7665 66.5443 48.666 66.4461 48.5627 66.3537C48.5023 66.2959 48.4421 66.241 48.3789 66.1891C48.3071 66.1255 48.2324 66.0621 48.1548 66.0043C48.1032 65.9638 48.0486 65.9235 47.994 65.883C47.928 65.8309 47.862 65.7847 47.793 65.7385C47.6982 65.6751 47.6036 65.6115 47.5059 65.5537C47.4197 65.4988 47.3307 65.4469 47.2416 65.3977C46.6098 65.0425 45.9005 64.7827 45.1166 64.6296L44.8179 64.5603L44.7863 64.5516C44.7863 64.5546 44.7863 64.5546 44.7834 64.5574C44.5134 65.5884 43.5974 66.8562 40.8117 67.1854H40.806C35.9297 67.7601 35.6424 64.4794 35.6424 64.4794V64.4766C35.5478 64.5343 35.4501 64.5949 35.3496 64.6585C35.3036 64.6873 35.2577 64.7163 35.2088 64.7481C35.16 64.7769 35.1111 64.8087 35.0624 64.8405C34.8212 64.9906 34.5713 65.1523 34.3185 65.3169C34.2842 65.34 34.2468 65.3631 34.2123 65.3862C34.0889 65.4672 33.9654 65.5509 33.8447 65.6346C33.6581 65.7588 33.4743 65.8858 33.2904 66.0129C33.2876 66.0159 33.2847 66.0159 33.2847 66.0159C33.0378 66.1891 32.7965 66.3652 32.561 66.5415C32.4836 66.6021 32.406 66.6598 32.3285 66.7176C32.2422 66.784 32.1561 66.8505 32.0729 66.9169C31.9896 66.9832 31.9091 67.0468 31.8258 67.1133C31.1912 67.6417 30.6686 68.1529 30.3612 68.6034C30.3383 68.641 30.3153 68.6757 30.2924 68.7132C30.2492 68.7825 30.212 68.8518 30.186 68.9182C30.1775 68.9298 30.1718 68.9442 30.1659 68.9557C29.8616 69.6777 29.6204 71.1535 29.4365 72.7563C29.4021 73.0509 29.3705 73.3483 29.3388 73.6486C29.3246 73.7757 29.313 73.9057 29.2986 74.0356C29.2929 74.1195 29.2844 74.2032 29.2757 74.2869C29.0546 76.7013 28.9512 78.951 28.9512 78.951L28.9541 79.8924L31.9091 79.9386L35.6138 79.9993L43.3016 80.1205L44.9241 80.1466L46.6299 80.1726L47.1297 80.1813H47.1527L47.1468 79.0116V79C47.1641 78.9885 47.1813 78.9741 47.1986 78.9597C47.5634 78.6823 47.9223 78.3184 48.198 77.9575C48.2151 77.9344 48.2295 77.9142 48.2439 77.8939C48.2496 77.8911 48.2496 77.8882 48.2525 77.8852L48.4707 79.8924L51.6068 79.6065L51.6297 79.6036L51.1731 73.3945Z" fill="#F76B6D"/>
<path id="Vector_60" fill-rule="evenodd" clip-rule="evenodd" d="M31.9456 76.4983C31.3078 75.1959 31.7796 73.7202 32.361 72.4939C32.4798 72.2436 32.1085 72.0235 31.989 72.2754C31.3339 73.6569 30.8592 75.2583 31.5738 76.717C31.696 76.9671 32.068 76.7479 31.9456 76.4983Z" fill="#DB4F5D"/>
<path id="Vector_61" fill-rule="evenodd" clip-rule="evenodd" d="M31.2007 72.5508C31.3504 72.7137 31.5 72.8767 31.65 73.0399C31.7266 73.1235 31.878 73.1236 31.9546 73.0399C32.0359 72.9507 32.0362 72.8227 31.9546 72.7338C31.8051 72.5707 31.6551 72.4075 31.5055 72.2443C31.4289 72.1609 31.2775 72.1606 31.2007 72.2443C31.1193 72.3339 31.1193 72.4615 31.2007 72.5508Z" fill="#DB4F5D"/>
<path id="Vector_62" fill-rule="evenodd" clip-rule="evenodd" d="M60.81 54.4797C60.81 54.4797 62.5332 57.6564 65.692 58.5228C68.851 59.3892 64.8306 53.6133 64.8306 53.6133L60.81 54.4797Z" fill="#565A5B"/>
<path id="Vector_63" fill-rule="evenodd" clip-rule="evenodd" d="M68.1196 84.3705V78.9065C68.1196 78.6278 67.689 78.6273 67.689 78.9065V84.3705C67.689 84.6492 68.1196 84.6498 68.1196 84.3705Z" fill="#249370"/>
<path id="Vector_64" fill-rule="evenodd" clip-rule="evenodd" d="M47.1287 80.1797V84.3701H41.1782C41.6205 83.345 42.1748 82.0454 42.5453 81.1646C42.5453 81.1616 42.5481 81.1587 42.5481 81.1587C42.795 80.5754 42.9617 80.1797 42.9617 80.1797H47.1287Z" fill="#D6A10D"/>
<path id="Vector_65" fill-rule="evenodd" clip-rule="evenodd" d="M26.1365 59.0446L24.1262 56.9004L23.2647 59.911L24.7005 61.3551L26.1365 59.0446Z" fill="#249370"/>
<path id="Vector_66" fill-rule="evenodd" clip-rule="evenodd" d="M20.6799 57.0293L21.5411 59.9112L20.1053 61.3551L19.2437 59.0448L20.6799 57.0293Z" fill="#249370"/>
<path id="Vector_67" fill-rule="evenodd" clip-rule="evenodd" d="M35.3553 49.2816C35.3553 49.2816 34.4939 52.1696 33.345 52.4583C32.1963 52.7472 33.9195 47.5488 33.9195 47.5488L35.6426 48.1265L35.3553 49.2816Z" fill="#929B9B"/>
<path id="Vector_68" fill-rule="evenodd" clip-rule="evenodd" d="M52.0113 68.9173L50.9028 70.6732L50.9 70.6789L49.0332 73.6333L48.0281 75.2275L44.9237 80.1457L44.9007 80.1804L42.2558 84.3708H31.9088V77.0035L35.6133 72.9142L38.534 69.6913L40.8056 67.1845L43.4735 64.2417L43.683 64.0078C43.683 64.0078 44.1627 64.0656 44.895 64.2214C46.9914 64.6692 51.1584 65.9196 52.0113 68.9173Z" fill="#FFC501"/>
<path id="Vector_69" fill-rule="evenodd" clip-rule="evenodd" d="M48.02 65.1075C45.3489 68.4502 42.8372 71.9193 40.4964 75.5041C40.3439 75.7377 40.7166 75.9552 40.8683 75.7227C43.1888 72.169 45.6765 68.7277 48.3246 65.4138C48.4967 65.1984 48.1937 64.89 48.02 65.1075Z" fill="#D6A10D"/>
<path id="Vector_70" fill-rule="evenodd" clip-rule="evenodd" d="M38.6269 74.1079C40.6087 71.719 42.5907 69.3304 44.5728 66.9414C44.749 66.7288 44.4457 66.4207 44.268 66.6351C42.2862 69.024 40.3044 71.4126 38.3223 73.8015C38.1459 74.014 38.4492 74.3221 38.6269 74.1079Z" fill="#D6A10D"/>
<path id="Vector_71" fill-rule="evenodd" clip-rule="evenodd" d="M48.3179 69.9956C48.9195 69.1448 49.5849 68.342 50.3061 67.5908C50.4987 67.3901 50.1944 67.0833 50.0013 67.2843C49.2549 68.0621 48.569 68.8961 47.946 69.7769C47.8785 69.8723 47.9291 70.0181 48.0233 70.0733C48.1313 70.1367 48.2504 70.0911 48.3179 69.9956Z" fill="#D6A10D"/>
<path id="Vector_72" fill-rule="evenodd" clip-rule="evenodd" d="M45.5298 76.804C43.8048 79.0274 42.1484 81.3031 40.5642 83.6302C40.4072 83.8609 40.7802 84.0778 40.9361 83.8487C42.4992 81.5522 44.1321 79.3043 45.8346 77.1103C46.0028 76.8929 45.7002 76.5842 45.5298 76.804Z" fill="#D6A10D"/>
<path id="Vector_73" fill-rule="evenodd" clip-rule="evenodd" d="M47.8961 76.0471C47.9052 77.1739 47.9916 78.2971 48.1476 79.413C48.164 79.5297 48.3107 79.5912 48.4127 79.5643C48.537 79.5312 48.5792 79.413 48.5631 79.2978C48.4124 78.2209 48.3357 77.1345 48.3267 76.0471C48.3245 75.7684 47.8937 75.7678 47.8961 76.0471Z" fill="#DB4F5D"/>
<path id="Vector_74" fill-rule="evenodd" clip-rule="evenodd" d="M37.0759 64.2003C37.0503 64.438 36.8382 64.6101 36.6015 64.5847C36.3648 64.5591 36.1939 64.3453 36.2193 64.1076C36.2448 63.8697 36.457 63.6975 36.6937 63.7233C36.9303 63.7489 37.1011 63.9624 37.0759 64.2003Z" fill="white"/>
<path id="Vector_75" fill-rule="evenodd" clip-rule="evenodd" d="M37.9388 64.7745C37.9131 65.0122 37.701 65.1843 37.4643 65.1589C37.2276 65.1333 37.0568 64.9195 37.0821 64.6818C37.1076 64.4439 37.3199 64.2717 37.5566 64.2975C37.7931 64.3231 37.964 64.5366 37.9388 64.7745Z" fill="white"/>
<path id="Vector_76" fill-rule="evenodd" clip-rule="evenodd" d="M38.8001 65.0676C38.7746 65.3052 38.5623 65.4774 38.3256 65.4519C38.0891 65.4262 37.9181 65.2125 37.9434 64.9747C37.9689 64.7368 38.1812 64.5648 38.4179 64.5904C38.6544 64.6161 38.8253 64.8295 38.8001 65.0676Z" fill="white"/>
<path id="Vector_77" fill-rule="evenodd" clip-rule="evenodd" d="M39.6614 65.3547C39.6359 65.5923 39.4236 65.7645 39.1869 65.739C38.9504 65.7133 38.7795 65.4996 38.8047 65.262C38.8304 65.0239 39.0425 64.8519 39.2792 64.8775C39.5159 64.9032 39.6867 65.1166 39.6614 65.3547Z" fill="white"/>
<path id="Vector_78" fill-rule="evenodd" clip-rule="evenodd" d="M40.5227 65.0676C40.4972 65.3052 40.2849 65.4774 40.0484 65.4519C39.8117 65.4262 39.6408 65.2125 39.666 64.9747C39.6917 64.7368 39.9039 64.5648 40.1405 64.5904C40.3772 64.6161 40.548 64.8295 40.5227 65.0676Z" fill="white"/>
<path id="Vector_79" fill-rule="evenodd" clip-rule="evenodd" d="M41.3841 64.7745C41.3585 65.0122 41.1462 65.1843 40.9097 65.1589C40.673 65.1333 40.5021 64.9195 40.5275 64.6818C40.553 64.4439 40.7652 64.2717 41.0018 64.2975C41.2385 64.3231 41.4093 64.5366 41.3841 64.7745Z" fill="white"/>
<path id="Vector_80" fill-rule="evenodd" clip-rule="evenodd" d="M42.2454 64.2003C42.2198 64.438 42.0077 64.6101 41.771 64.5847C41.5343 64.5591 41.3634 64.3453 41.3888 64.1076C41.4143 63.8697 41.6265 63.6975 41.8632 63.7233C42.0998 63.7489 42.2706 63.9624 42.2454 64.2003Z" fill="white"/>
<path id="Vector_81" fill-rule="evenodd" clip-rule="evenodd" d="M10.7763 70.4532C10.8553 70.545 10.9322 70.6389 11.0063 70.7344C11.0287 70.7637 10.9908 70.7137 11.0129 70.7431C11.0218 70.7547 11.0307 70.7665 11.0396 70.7781C11.0572 70.8018 11.0747 70.8255 11.0919 70.8492C11.1287 70.8994 11.1648 70.9506 11.2002 71.0019C11.3377 71.2015 11.4644 71.4085 11.5807 71.6214C11.635 71.7207 11.7794 71.7612 11.8753 71.6991C11.9756 71.6341 12.0106 71.509 11.9526 71.4028C11.7076 70.954 11.4138 70.534 11.081 70.1467C11.0069 70.0611 10.851 70.0651 10.7763 70.1467C10.6927 70.2387 10.6973 70.3617 10.7763 70.4532Z" fill="#249370"/>
<path id="Vector_82" fill-rule="evenodd" clip-rule="evenodd" d="M35.1173 58.3019C35.3424 58.5408 35.6468 58.6838 35.9708 58.7184C36.0389 58.7256 36.1043 58.6529 36.1014 58.587C36.098 58.5096 36.0437 58.4634 35.9708 58.4556C35.9627 58.4547 35.9547 58.4538 35.9463 58.4529C35.9574 58.455 35.9601 58.4544 35.9463 58.4529C35.9282 58.4501 35.9087 58.4463 35.8907 58.4429C35.8571 58.436 35.8232 58.4279 35.7902 58.4177C35.7569 58.4082 35.724 58.397 35.6916 58.3842C35.6897 58.3836 35.6669 58.3745 35.6793 58.3796C35.6913 58.3845 35.6687 58.3749 35.6666 58.3742C35.6499 58.3667 35.6333 58.3586 35.6169 58.3505C35.5569 58.3202 35.4992 58.2849 35.4449 58.2453C35.4366 58.2393 35.4282 58.2335 35.4206 58.2272C35.4311 58.2356 35.4248 58.2306 35.4179 58.2248C35.4056 58.2144 35.393 58.2041 35.3808 58.1931C35.3534 58.1688 35.3271 58.1429 35.3022 58.1159C35.2548 58.0662 35.1641 58.0649 35.1173 58.1159C35.0684 58.1697 35.067 58.2485 35.1173 58.3019Z" fill="#EF8A7F"/>
<path id="Vector_83" fill-rule="evenodd" clip-rule="evenodd" d="M33.9882 47.6247C34.7039 49.0314 35.7332 50.2559 36.9912 51.2027C37.6343 51.686 38.3348 52.0941 39.0753 52.4066C39.8204 52.7208 40.6353 52.9137 41.4231 52.6472C41.5815 52.5935 41.5136 52.3392 41.3535 52.3935C40.5185 52.6766 39.6587 52.3973 38.8913 52.0395C38.2215 51.7271 37.5869 51.338 37.0037 50.8838C35.8365 49.9743 34.8857 48.8132 34.214 47.4921C34.1373 47.3414 33.9119 47.4743 33.9882 47.6247Z" fill="white"/>
<path id="Vector_84" fill-rule="evenodd" clip-rule="evenodd" d="M34.3915 46.6064C35.0251 48.3326 36.2989 49.7835 37.9317 50.6172C38.0812 50.6937 38.2137 50.4671 38.0634 50.3904C36.4932 49.5885 35.2539 48.1997 34.6434 46.5365C34.5856 46.3791 34.333 46.4472 34.3915 46.6064Z" fill="white"/>
<path id="Vector_85" fill-rule="evenodd" clip-rule="evenodd" d="M23.1885 59.9624L22.7109 60.8038L23.6093 60.0502L23.4758 59.3848L23.1885 59.9624Z" fill="#249370"/>
<path id="Vector_86" fill-rule="evenodd" clip-rule="evenodd" d="M21.4659 59.6777L22.471 60.9772L21.0351 60.3997L21.4659 59.6777Z" fill="#249370"/>
</g>
</g>
</g>
</g>
</g>
</g>
</g>
<defs>
<clipPath id="clip0_13_94">
<rect width="84" height="84" fill="white"/>
</clipPath>
</defs>
</svg>
