<svg xmlns="http://www.w3.org/2000/svg" width="85" height="74" viewBox="0 0 85 74" fill="none">
  <g clip-path="url(#clip0_13_312)">
    <path fill-rule="evenodd" clip-rule="evenodd" d="M6.21985 66.7261C6.21985 68.9399 8.00466 70.7348 10.2061 70.7348C12.4078 70.7348 14.1923 68.9399 14.1923 66.7261C14.1923 64.5123 12.4078 62.7175 10.2061 62.7175C8.00466 62.7175 6.21985 64.5123 6.21985 66.7261Z" fill="#31CEA3"/>
    <path fill-rule="evenodd" clip-rule="evenodd" d="M3.18164 71.9805C3.18164 72.3222 3.21502 72.6547 3.28177 72.9782H13.1404C13.2071 72.6547 13.2405 72.3222 13.2405 71.9805C13.2405 71.2053 13.0676 70.4669 12.7584 69.8109C12.5335 69.3378 12.2395 68.9047 11.8845 68.5262C11.2412 67.8304 10.3973 67.3178 9.45061 67.0768C9.05341 66.9761 8.63741 66.9211 8.20956 66.9211C7.52106 66.9211 6.86262 67.0616 6.26151 67.3148C5.21466 67.7572 4.34683 68.5476 3.80399 69.5393C3.40922 70.2624 3.18164 71.0955 3.18164 71.9805Z" fill="#31CEA3"/>
    <path fill-rule="evenodd" clip-rule="evenodd" d="M9.44971 50.6893V72.9739H24.3909L24.8247 72.9712L27.8622 72.9647V49.1637L24.4697 45.7522L21.7874 43.0547L16.0009 44.2204L9.44971 50.6893Z" fill="#FDE98E"/>
    <path fill-rule="evenodd" clip-rule="evenodd" d="M24.3912 51.3074V72.9726L24.8252 72.9695L27.8622 72.9634L31.4794 72.9573C31.3762 71.7092 31.4886 51.7621 31.4886 51.7621L27.8622 51.5302L24.8252 51.3349L24.3912 51.3074Z" fill="#FFC501"/>
    <path fill-rule="evenodd" clip-rule="evenodd" d="M24.8263 48.5896V72.9704L27.8636 72.9643L31.4808 72.9582H31.8508V48.5896H24.8263Z" fill="#FFC501"/>
    <path fill-rule="evenodd" clip-rule="evenodd" d="M24.3919 51.9218L32.5549 52.0164C32.5549 50.4504 26.4863 49.1664 26.4863 49.1664L20.341 42.9866H17.2327L9.41467 50.8487V52.183L17.2336 44.6249L24.3919 51.9218Z" fill="#D6A10D"/>
    <path fill-rule="evenodd" clip-rule="evenodd" d="M17.2323 43.0547L24.6352 50.69H29.3806V43.0547H17.2323Z" fill="#A05A2B"/>
    <path fill-rule="evenodd" clip-rule="evenodd" d="M18.7506 72.9728H15.7131V64.8164H18.7506V72.9728Z" fill="#FFC501"/>
    <path fill-rule="evenodd" clip-rule="evenodd" d="M27.8632 39.8137V41.7209V72.9673L31.4804 72.9612H31.8506L33.1766 72.9582L36.9753 72.949L50.7364 72.9216H50.9454V38.0957L50.7364 38.1109L32.8822 39.4414L29.6777 39.6793L27.8632 39.8137Z" fill="#1EAA80"/>
    <path fill-rule="evenodd" clip-rule="evenodd" d="M27.8629 41.7175V72.9639L31.4801 72.9579H31.8504L33.1763 72.9549L36.975 72.9457L50.7361 72.9183H50.8666V41.7175H27.8629Z" fill="#59EAB9"/>
    <path fill-rule="evenodd" clip-rule="evenodd" d="M51.2473 61.5711H27.8622V59.0896H51.2473V61.5711Z" fill="#1EAA80"/>
    <path fill-rule="evenodd" clip-rule="evenodd" d="M79.3035 67.3952C79.3035 69.8727 81.3008 71.8811 83.7643 71.8811C86.2279 71.8811 88.2247 69.8727 88.2247 67.3952C88.2247 64.9178 86.2279 62.9094 83.7643 62.9094C81.3008 62.9094 79.3035 64.9178 79.3035 67.3952Z" fill="#33B895"/>
    <path fill-rule="evenodd" clip-rule="evenodd" d="M79.3038 70.7505C79.3038 71.5165 79.495 72.2335 79.8318 72.8621L83.8584 72.853L85.2724 72.8499L87.7059 72.8468C88.0367 72.2213 88.2248 71.5103 88.2248 70.7505C88.2248 70.1555 88.1099 69.591 87.9002 69.0722C87.7636 68.7305 87.5845 68.4101 87.3721 68.1172C86.5801 67.0187 85.3057 66.2955 83.8584 66.2681C83.8281 66.2649 83.7947 66.2649 83.7644 66.2649C81.8921 66.2649 80.2869 67.4246 79.6286 69.0722C79.4191 69.591 79.3038 70.1555 79.3038 70.7505Z" fill="#33B895"/>
    <path fill-rule="evenodd" clip-rule="evenodd" d="M18.7506 58.3302H15.7135V55.2759H18.7506V58.3302Z" fill="#A18DFC"/>
    <path fill-rule="evenodd" clip-rule="evenodd" d="M50.7368 35.3254V72.9189H50.9459L53.4885 72.9159L57.7703 72.9067H57.7732C61.0623 71.2895 68.4846 67.3928 68.4846 67.3928V39.811L59.9429 30.8398L50.7368 35.3254Z" fill="#31CEA3"/>
    <path fill-rule="evenodd" clip-rule="evenodd" d="M68.4839 56.2265V72.8844L79.8321 72.86L83.8586 72.8508V58.5151L76.2667 50.6882L68.4839 56.2265Z" fill="#FFC501"/>
    <path fill-rule="evenodd" clip-rule="evenodd" d="M53.4885 58.1364V72.9175L57.77 72.9083H57.7732L68.4846 72.8869V56.2292L53.4885 58.1364Z" fill="#FDE98E"/>
    <path fill-rule="evenodd" clip-rule="evenodd" d="M68.4835 56.2292V59.7845L68.672 59.6652H53.4878V58.1383L68.4835 56.2292Z" fill="#D6A10D"/>
    <path fill-rule="evenodd" clip-rule="evenodd" d="M62.789 67.4906H59.3721V64.0547H62.789V67.4906Z" fill="#FFC501"/>
    <path fill-rule="evenodd" clip-rule="evenodd" d="M78.1644 67.4906H74.7473V64.0547H78.1644V67.4906Z" fill="#D6A10D"/>
    <path fill-rule="evenodd" clip-rule="evenodd" d="M44.3768 49.1672H41.3396V46.113H44.3768V49.1672Z" fill="#31CEA3"/>
    <path fill-rule="evenodd" clip-rule="evenodd" d="M43.9186 66.9356H40.8816V63.8813H43.9186V66.9356Z" fill="#31CEA3"/>
    <path fill-rule="evenodd" clip-rule="evenodd" d="M36.9738 49.1672H33.9365V46.113H36.9738V49.1672Z" fill="#31CEA3"/>
    <path fill-rule="evenodd" clip-rule="evenodd" d="M61.0802 49.1672H58.0431V46.113H61.0802V49.1672Z" fill="#208966"/>
    <path fill-rule="evenodd" clip-rule="evenodd" d="M50.944 53.7837V59.7835H46.3882V58.1373L50.944 53.7837Z" fill="#31CEA3"/>
    <path fill-rule="evenodd" clip-rule="evenodd" d="M33.1764 64.0547V72.9587L36.9754 72.9496V64.0547H33.1764Z" fill="#31CEA3"/>
    <path fill-rule="evenodd" clip-rule="evenodd" d="M53.4885 58.1392H68.4843L76.2668 50.6946H61.081L53.4885 58.1392Z" fill="#A05A2B"/>
    <path fill-rule="evenodd" clip-rule="evenodd" d="M50.6418 39.8114L59.9426 30.8398H36.5951L27.8635 39.8114H50.6418Z" fill="#208966"/>
    <path fill-rule="evenodd" clip-rule="evenodd" d="M28.1658 53.8643C28.1658 54.0182 50.944 53.8643 50.944 53.8643L46.5017 58.3316H23.4199L28.1658 53.8643Z" fill="#208966"/>
    <path fill-rule="evenodd" clip-rule="evenodd" d="M46.3888 59.8552H23.4207V58.3281H46.3888V59.8552Z" fill="#59EAB9"/>
    <path fill-rule="evenodd" clip-rule="evenodd" d="M31.8115 40.0899C39.006 40.0899 44.8595 34.2038 44.8595 26.9688C44.8595 19.7337 39.006 13.8477 31.8115 13.8477C24.6169 13.8477 18.7642 19.7337 18.7642 26.9688C18.7642 34.2038 24.6169 40.0899 31.8115 40.0899ZM31.8116 0.726562C46.201 0.726562 57.9072 12.4759 57.9072 26.9176C57.9072 44.8402 34.5543 71.1516 33.5601 72.2631C33.093 72.7848 32.4521 73.0455 31.8111 73.0452C31.17 73.0449 27.6879 73.0452 26.9903 73.0452C26.4418 73.0452 29.1634 71.2516 28.0342 69.9057C22.1529 62.8944 5.71643 41.9538 5.71643 26.9176C5.71675 12.4759 17.4227 0.726562 31.8116 0.726562Z" fill="#F76B6D"/>
    <path fill-rule="evenodd" clip-rule="evenodd" d="M27.2612 40.0899C34.4559 40.0899 40.3091 34.2038 40.3091 26.9688C40.3091 19.7337 34.4559 13.8477 27.2612 13.8477C20.0667 13.8477 14.2137 19.7337 14.2137 26.9688C14.2137 34.2038 20.0667 40.0899 27.2612 40.0899ZM27.2614 0.726562C41.6506 0.726562 53.3568 12.4759 53.3568 26.9176C53.3568 44.8402 30.0039 71.1516 29.0097 72.2631C28.0755 73.3069 26.4454 73.305 25.5129 72.2631C24.5187 71.1516 1.16602 44.8402 1.16602 26.9176C1.16633 12.4759 12.8724 0.726562 27.2614 0.726562Z" fill="#FF7C78"/>
  </g>
  <defs>
    <clipPath id="clip0_13_312">
      <rect width="84" height="72.9057" fill="white" transform="translate(0.98999 0.547119)"/>
    </clipPath>
  </defs>
</svg>